<svg width="510" height="239" viewBox="0 0 510 239" fill="none" xmlns="http://www.w3.org/2000/svg">
<rect y="102" width="170" height="137" fill="url(#paint0_linear_642_2)"/>
<path d="M164.781 73.7892L164.087 70H5.9118L164.781 73.7892ZM5.21814 73.7892H164.781L5.9118 70L5.21814 73.7892ZM165.487 77.6454L164.781 73.7892H5.21814L165.487 77.6454ZM4.51221 77.6454H165.487L5.21814 73.7892L4.51221 77.6454Z" fill="#1AA71A"/>
<path d="M166.206 81.5706L165.487 77.6455H4.51266L166.206 81.5706ZM3.79412 81.5706H166.206L4.51266 77.6455L3.79412 81.5706ZM166.937 85.5664L166.206 81.5706H3.79412L166.937 85.5664ZM3.06263 85.5664H166.937L3.79412 81.5706L3.06263 85.5664ZM167.682 89.6348L166.937 85.5664H3.06263L167.682 89.6348ZM2.31785 89.6348H167.682L3.06263 85.5664L2.31785 89.6348ZM168.441 93.7779L167.682 89.6348H2.31785L168.441 93.7779ZM1.55941 93.7779H168.441L2.31785 89.6348L1.55941 93.7779ZM169.213 97.9977L168.441 93.7779H1.55941L169.213 97.9977ZM0.786921 97.9977H169.213L1.55941 93.7779L0.786921 97.9977ZM170 102.296L169.213 97.9977H0.786921L170 102.296ZM0 102.296H170L0.786921 97.9977L0 102.296Z" fill="#1AA71A"/>
<circle cx="85" cy="65" r="25" fill="#C4C4C4"/>
<rect x="340" y="134" width="170" height="105" fill="url(#paint1_linear_642_2)"/>
<path d="M504.781 105.789L504.087 102H345.912L504.781 105.789ZM345.218 105.789H504.781L345.912 102L345.218 105.789ZM505.487 109.645L504.781 105.789H345.218L505.487 109.645ZM344.512 109.645H505.487L345.218 105.789L344.512 109.645Z" fill="#1AA71A"/>
<path d="M506.206 113.571L505.487 109.646H344.513L506.206 113.571ZM343.794 113.571H506.206L344.513 109.646L343.794 113.571ZM506.937 117.566L506.206 113.571H343.794L506.937 117.566ZM343.063 117.566H506.937L343.794 113.571L343.063 117.566ZM507.682 121.635L506.937 117.566H343.063L507.682 121.635ZM342.318 121.635H507.682L343.063 117.566L342.318 121.635ZM508.441 125.778L507.682 121.635H342.318L508.441 125.778ZM341.559 125.778H508.441L342.318 121.635L341.559 125.778ZM509.213 129.998L508.441 125.778H341.559L509.213 129.998ZM340.787 129.998H509.213L341.559 125.778L340.787 129.998ZM510 134.296L509.213 129.998H340.787L510 134.296ZM340 134.296H510L340.787 129.998L340 134.296Z" fill="#1AA71A"/>
<circle cx="425" cy="97" r="25" fill="#C4C4C4"/>
<rect x="170" y="59" width="170" height="180" fill="url(#paint2_linear_642_2)"/>
<path d="M334.781 29.0807L334.087 25H175.912L334.781 29.0807ZM175.218 29.0807H334.781L175.912 25L175.218 29.0807ZM335.487 33.2335L334.781 29.0807H175.218L335.487 33.2335ZM174.512 33.2335H335.487L175.218 29.0807L174.512 33.2335Z" fill="#1AA71A"/>
<path d="M336.206 37.4607L335.487 33.2336H174.513L336.206 37.4607ZM173.794 37.4607H336.206L174.513 33.2336L173.794 37.4607ZM336.937 41.7638L336.206 37.4607H173.794L336.937 41.7638ZM173.063 41.7638H336.937L173.794 37.4607L173.063 41.7638ZM337.682 46.1452L336.937 41.7638H173.063L337.682 46.1452ZM172.318 46.1452H337.682L173.063 41.7638L172.318 46.1452ZM338.441 50.607L337.682 46.1452H172.318L338.441 50.607ZM171.559 50.607H338.441L172.318 46.1452L171.559 50.607ZM339.213 55.1514L338.441 50.607H171.559L339.213 55.1514ZM170.787 55.1514H339.213L171.559 50.607L170.787 55.1514ZM340 59.7808L339.213 55.1514H170.787L340 59.7808ZM170 59.7808H340L170.787 55.1514L170 59.7808Z" fill="#1AA71A"/>
<circle cx="255" cy="25" r="25" fill="#C4C4C4"/>
<defs>
<linearGradient id="paint0_linear_642_2" x1="85" y1="102" x2="85" y2="239" gradientUnits="userSpaceOnUse">
<stop stop-color="#1EC01E"/>
<stop offset="1" stop-color="#1EC01E" stop-opacity="0"/>
</linearGradient>
<linearGradient id="paint1_linear_642_2" x1="425" y1="134" x2="425" y2="239" gradientUnits="userSpaceOnUse">
<stop stop-color="#1EC01E"/>
<stop offset="0.234375" stop-color="#1EC01E" stop-opacity="0.75"/>
<stop offset="1" stop-color="#1EC01E" stop-opacity="0"/>
</linearGradient>
<linearGradient id="paint2_linear_642_2" x1="255" y1="59" x2="255" y2="239" gradientUnits="userSpaceOnUse">
<stop stop-color="#1EC01E"/>
<stop offset="0.662539" stop-color="#1EC01E" stop-opacity="0.5"/>
<stop offset="1" stop-color="#1EC01E" stop-opacity="0"/>
</linearGradient>
</defs>
</svg>
