<svg width="25" height="27" viewBox="0 0 25 27" fill="none" xmlns="http://www.w3.org/2000/svg">
<path d="M8.56783 17.8644H6.55088C6.01596 17.8644 5.50294 17.6399 5.12469 17.2403C4.74643 16.8407 4.53394 16.2988 4.53394 15.7336V7.21065C4.53394 6.64554 4.74643 6.10357 5.12469 5.70398C5.50294 5.30438 6.01596 5.0799 6.55088 5.0799H14.6187C15.1536 5.0799 15.6666 5.30438 16.0449 5.70398C16.4231 6.10357 16.6356 6.64554 16.6356 7.21065V9.3414L8.56783 17.8644ZM10.5848 22.1259H18.6526C19.1875 22.1259 19.7005 21.9014 20.0788 21.5018C20.457 21.1022 20.6695 20.5603 20.6695 19.9952V11.4721C20.6695 10.907 20.457 10.3651 20.0788 9.96548C19.7005 9.56589 19.1875 9.3414 18.6526 9.3414H10.5848C10.0499 9.3414 9.53684 9.56589 9.15859 9.96548C8.78033 10.3651 8.56783 10.907 8.56783 11.4721V19.9952C8.56783 20.5603 8.78033 21.1022 9.15859 21.5018C9.53684 21.9014 10.0499 22.1259 10.5848 22.1259Z" stroke="#1EC01E" stroke-width="2" stroke-linecap="round" stroke-linejoin="round"/>
</svg>
